HIERARCHY
ROOT Hips
{
	OFFSET 0.000000 0.000000 0.000000 
	CHANNELS 6 Xposition Yposition Zposition Zrotation Yrotation Xrotation
	JOINT LHipJoint
	{
		OFFSET 0.000000 0.000000 0.000000 
		CHANNELS 3 Zrotation Yrotation Xrotation
		JOINT LeftUpLeg
		{
			OFFSET 0.085211 -0.098391 0.069398 
			CHANNELS 3 Zrotation Yrotation Xrotation
			JOINT LeftLeg
			{
				OFFSET 0.149043 -0.409492 0.000000 
				CHANNELS 3 Zrotation Yrotation Xrotation
				JOINT LeftFoot
				{
					OFFSET 0.148229 -0.407256 0.000000 
					CHANNELS 3 Zrotation Yrotation Xrotation
					JOINT LeftToeBase
					{
						OFFSET 0.018174 -0.049932 0.125871 
						CHANNELS 3 Zrotation Yrotation Xrotation
						End Site
						{
							OFFSET 0.000000 -0.000000 0.067452 
						}
					}
				}
			}
		}
	}
	JOINT RHipJoint
	{
		OFFSET 0.000000 0.000000 0.000000 
		CHANNELS 3 Zrotation Yrotation Xrotation
		JOINT RightUpLeg
		{
			OFFSET -0.085218 -0.098391 0.069398 
			CHANNELS 3 Zrotation Yrotation Xrotation
			JOINT RightLeg
			{
				OFFSET -0.143476 -0.394198 0.000000 
				CHANNELS 3 Zrotation Yrotation Xrotation
				JOINT RightFoot
				{
					OFFSET -0.150616 -0.413812 0.000000 
					CHANNELS 3 Zrotation Yrotation Xrotation
					JOINT RightToeBase
					{
						OFFSET -0.014498 -0.039833 0.120145 
						CHANNELS 3 Zrotation Yrotation Xrotation
						End Site
						{
							OFFSET -0.000000 -0.000000 0.063476 
						}
					}
				}
			}
		}
	}
	JOINT LowerBack
	{
		OFFSET 0.000000 0.000000 0.000000 
		CHANNELS 3 Zrotation Yrotation Xrotation
		JOINT Spine
		{
			OFFSET -0.005353 0.127251 -0.015351 
			CHANNELS 3 Zrotation Yrotation Xrotation
			JOINT Spine1
			{
				OFFSET -0.000023 0.128558 0.000135 
				CHANNELS 3 Zrotation Yrotation Xrotation
				JOINT Neck
				{
					OFFSET 0.000000 0.000000 0.000000 
					CHANNELS 3 Zrotation Yrotation Xrotation
					JOINT Neck1
					{
						OFFSET -0.002290 0.105947 0.019868 
						CHANNELS 3 Zrotation Yrotation Xrotation
						JOINT Head
						{
							OFFSET 0.000583 0.106363 -0.028758 
							CHANNELS 3 Zrotation Yrotation Xrotation
							End Site
							{
								OFFSET 0.000777 0.111013 -0.012111 
							}
						}
					}
				}
				JOINT LeftShoulder
				{
					OFFSET 0.000000 0.000000 0.000000 
					CHANNELS 3 Zrotation Yrotation Xrotation
					JOINT LeftArm
					{
						OFFSET 0.233965 0.050822 -0.022904 
						CHANNELS 3 Zrotation Yrotation Xrotation
						JOINT LeftForeArm
						{
							OFFSET 0.310741 -0.000000 -0.000000 
							CHANNELS 3 Zrotation Yrotation Xrotation
							JOINT LeftHand
							{
								OFFSET 0.209882 -0.000000 0.000000 
								CHANNELS 3 Zrotation Yrotation Xrotation
								JOINT LeftFingerBase
								{
									OFFSET 0.000000 0.000000 0.000000 
									CHANNELS 3 Zrotation Yrotation Xrotation
									JOINT LeftHandIndex1
									{
										OFFSET 0.038924 -0.000000 0.000000 
										CHANNELS 3 Zrotation Yrotation Xrotation
										End Site
										{
											OFFSET 0.031381 -0.000000 0.000000 
										}
									}
								}
								JOINT LThumb
								{
									OFFSET 0.000000 0.000000 0.000000 
									CHANNELS 3 Zrotation Yrotation Xrotation
									End Site
									{
										OFFSET 0.031860 -0.000000 0.031860 
									}
								}
							}
						}
					}
				}
				JOINT RightShoulder
				{
					OFFSET 0.000000 0.000000 0.000000 
					CHANNELS 3 Zrotation Yrotation Xrotation
					JOINT RightArm
					{
						OFFSET -0.234616 0.031666 -0.004078 
						CHANNELS 3 Zrotation Yrotation Xrotation
						JOINT RightForeArm
						{
							OFFSET -0.310308 -0.000000 -0.000000 
							CHANNELS 3 Zrotation Yrotation Xrotation
							JOINT RightHand
							{
								OFFSET -0.209331 -0.000000 0.000000 
								CHANNELS 3 Zrotation Yrotation Xrotation
								JOINT RightFingerBase
								{
									OFFSET 0.000000 0.000000 0.000000 
									CHANNELS 3 Zrotation Yrotation Xrotation
									JOINT RightHandIndex1
									{
										OFFSET -0.039878 -0.000000 0.000000 
										CHANNELS 3 Zrotation Yrotation Xrotation
										End Site
										{
											OFFSET -0.032151 -0.000000 0.000000 
										}
									}
								}
								JOINT RThumb
								{
									OFFSET 0.000000 0.000000 0.000000 
									CHANNELS 3 Zrotation Yrotation Xrotation
									End Site
									{
										OFFSET -0.032641 -0.000000 0.032641 
									}
								}
							}
						}
					}
				}
			}
		}
	}
}
MOTION
Frames: 12
Frame Time: 0.008333
-1.938500 1.006231 0.069788 69.722900 84.434502 69.246300 0.000000 0.000000 0.000000 -26.314699 -3.429100 -4.334600 2.755500 10.288300 29.915300 1.982600 6.920900 -29.815201 0.018500 0.878600 2.414800 0.000000 0.000000 0.000000 11.957000 -2.041800 -12.324400 -3.750600 -11.820900 35.101200 -1.949900 1.438900 -26.015499 -0.037400 -1.248300 3.432300 -8.845300 0.935500 0.735100 0.590200 1.512700 5.080200 5.631300 0.412600 4.676000 -4.742700 0.650600 -18.731199 2.450200 2.780500 34.187901 2.436800 1.232600 14.925200 -0.000000 0.000000 0.000000 -89.400398 -1.248500 8.752400 11.351200 -18.824499 -1.887700 -0.000000 -0.000000 25.506100 25.049299 -10.990200 -5.091500 -7.125000 0.000000 -0.000000 -1.439300 17.882900 0.928100 -0.000000 0.000000 0.000000 81.803299 -2.426400 21.526800 -18.349600 28.602600 -4.715400 0.000000 -0.000000 -15.959800 -10.815500 -29.583200 5.387900 7.125000 -0.000000 -0.000000 22.723000 -58.531300 -7.775200 
-1.941087 1.007394 0.069137 55.708698 86.374496 55.591202 0.000000 0.000000 0.000000 -23.886700 -4.065200 -5.318800 2.993900 10.685200 31.225401 2.152700 6.479200 -30.631901 0.036900 1.239100 3.406900 0.000000 0.000000 0.000000 14.266700 -2.969600 -13.389900 -3.751300 -11.821900 35.104900 -1.774300 1.721400 -24.712099 -0.026000 -1.041200 2.862100 -6.862400 0.851100 1.288500 0.997600 1.274600 4.711500 4.917400 0.396800 4.009800 -4.276600 0.926000 -18.458200 2.170100 3.100100 33.997101 2.282000 1.392500 14.772100 0.000000 0.000000 0.000000 -88.848000 -0.728100 11.829100 11.997100 -19.800301 -2.101300 -0.000000 -0.000000 22.642700 18.884501 -10.663300 -3.621800 -7.125000 0.000000 -0.000000 -5.774400 18.756901 3.629400 0.000000 0.000000 0.000000 81.819901 -3.177900 23.340900 -19.085199 29.524401 -5.072800 0.000000 -0.000000 -16.334600 -10.185100 -29.371700 5.035800 7.125000 -0.000000 -0.000000 23.206499 -58.200100 -7.765200 
-1.943806 1.008162 0.068425 22.736799 87.744797 22.952900 0.000000 0.000000 0.000000 -21.534599 -4.694300 -6.334600 3.261100 11.106100 32.638699 2.302200 6.034100 -31.302900 0.045800 1.381600 3.799500 0.000000 0.000000 0.000000 16.405600 -3.812200 -14.473100 -3.787900 -11.872700 35.283001 -1.610300 2.250200 -23.380199 -0.009300 -0.624300 1.715400 -4.892800 0.734600 1.770600 1.363200 1.047800 4.444300 4.171000 0.367200 3.492400 -3.839000 1.169700 -18.333200 1.862800 3.400100 33.841301 2.122200 1.533500 14.674700 -0.000000 0.000000 0.000000 -88.375801 -0.468600 14.412500 12.592600 -20.687401 -2.307400 -0.000000 -0.000000 20.801300 12.905300 -10.069000 -2.294000 -7.125000 0.000000 -0.000000 -10.010600 19.733200 6.136300 -0.000000 0.000000 0.000000 82.056297 -3.383000 24.219999 -19.455400 29.980600 -5.256500 0.000000 -0.000000 -15.888200 -9.672000 -28.872700 4.704500 7.125000 -0.000000 -0.000000 23.357000 -57.634899 -7.496800 
-1.946150 1.008950 0.067881 -30.808901 87.707100 -30.256500 0.000000 0.000000 0.000000 -19.195101 -5.168000 -7.282900 3.486700 11.444100 33.792801 2.407600 5.566600 -31.692200 0.033100 1.174400 3.228800 0.000000 0.000000 0.000000 18.404600 -4.724600 -15.670200 -3.861400 -11.973700 35.639099 -1.410700 2.875800 -21.700399 -0.000200 -0.082900 0.227700 -2.971900 0.553900 2.078600 1.760000 0.776900 4.239300 3.489900 0.298700 3.139700 -3.654000 1.393100 -18.182600 1.701600 3.704800 33.669201 2.066400 1.665700 14.557900 0.000000 -0.000000 0.000000 -87.960297 -0.322400 15.341300 13.094500 -21.425501 -2.487700 -0.000000 -0.000000 20.753799 6.784900 -9.605400 -1.137300 -7.125000 0.000000 -0.000000 -14.346400 20.435699 8.707600 0.000000 -0.000000 0.000000 82.358299 -3.270200 24.396700 -19.586800 30.141300 -5.322300 0.000000 -0.000000 -15.078000 -8.912200 -28.610800 4.294400 7.125000 -0.000000 -0.000000 23.929800 -57.236500 -7.461100 
-1.948694 1.010419 0.067512 -71.658699 85.103401 -70.029800 0.000000 0.000000 0.000000 -14.969400 -5.338700 -9.321200 3.675300 11.715300 34.731998 2.379300 4.771800 -31.134399 0.011800 0.700400 1.924700 0.000000 0.000000 0.000000 22.124701 -5.320800 -17.795500 -3.982100 -12.136500 36.216499 -1.210000 2.950300 -20.025600 -0.008800 0.604300 -1.660700 0.343600 0.219300 1.734300 2.626700 0.317300 3.771300 2.514500 0.162400 2.889500 -3.515800 1.666800 -17.882700 1.532400 4.102900 33.498901 2.028200 1.834600 14.406700 -0.000000 -0.000000 0.000000 -87.774002 0.370500 22.651300 13.849400 -22.518999 -2.770200 -0.000000 -0.000000 4.574600 6.076500 -3.816900 -0.406000 -7.125000 0.000000 -0.000000 -15.444200 26.074400 7.337800 -0.000000 -0.000000 0.000000 82.540100 -3.275500 24.680500 -19.756901 30.348301 -5.408000 0.000000 -0.000000 -14.346800 -8.500700 -28.616699 4.094600 7.125000 -0.000000 -0.000000 24.344900 -57.155899 -7.552900 
-1.950169 1.011088 0.066744 -67.186401 84.490097 -65.599701 0.000000 0.000000 0.000000 -14.533600 -5.271500 -9.563700 3.765200 11.841200 35.172501 2.405200 5.099100 -31.446800 0.007400 0.553900 1.522000 0.000000 0.000000 0.000000 22.225901 -5.771000 -18.885599 -4.188100 -12.406600 37.186001 -1.075900 3.521400 -18.745600 -0.118100 2.215100 -6.100600 0.645700 0.248800 2.212900 2.643900 0.370100 3.620600 2.357400 0.198900 2.463800 -3.269800 1.962100 -17.409700 1.242700 4.530500 33.252602 1.920400 2.017900 14.191700 0.000000 0.000000 0.000000 -87.703598 0.311800 25.572701 14.110200 -22.892000 -2.870800 -0.000000 0.000000 -3.018900 11.943400 -2.104600 -0.445100 -7.125000 0.000000 -0.000000 -11.241400 27.767799 4.795200 0.000000 0.000000 0.000000 82.721298 -3.406700 24.963699 -19.943300 30.573999 -5.502500 0.000000 -0.000000 -13.586600 -8.297700 -28.330000 3.959100 7.125000 -0.000000 -0.000000 24.340300 -56.854599 -7.370800 
-1.950312 1.011888 0.065881 -62.196999 84.098198 -60.746399 0.000000 0.000000 0.000000 -14.490800 -5.168500 -9.435600 3.800000 11.889400 35.341702 2.419500 5.487200 -31.722700 0.012300 0.715100 1.965300 0.000000 0.000000 0.000000 21.887699 -6.283600 -19.799601 -4.416900 -12.695500 38.238899 -1.014500 4.478900 -18.065599 -0.548700 4.745600 -13.184300 0.833200 0.351600 2.452400 2.543400 0.515400 3.580100 2.145400 0.277700 2.284400 -3.000500 2.143600 -17.018600 0.893800 4.801700 32.982899 1.760500 2.128400 13.997200 0.000000 0.000000 0.000000 -87.584297 -0.201100 25.381901 13.964800 -22.684401 -2.814500 -0.000000 0.000000 -2.997900 12.104000 -2.463000 -0.528000 -7.125000 0.000000 -0.000000 -11.084700 27.408300 4.821800 0.000000 0.000000 0.000000 82.950897 -3.516500 25.045799 -20.096001 30.757799 -5.580300 0.000000 -0.000000 -13.196400 -7.634300 -27.798500 3.576900 7.125000 -0.000000 -0.000000 24.620899 -56.239201 -7.088700 
-1.950088 1.012488 0.065487 -59.194401 83.711700 -57.879799 0.000000 0.000000 0.000000 -14.374200 -5.022500 -9.088700 3.760200 11.834300 35.148300 2.425100 5.607500 -31.816200 0.036400 1.231700 3.386600 0.000000 0.000000 0.000000 21.507401 -6.541700 -20.507700 -4.665400 -12.996700 39.356201 -0.969200 5.680600 -17.572001 -0.919300 6.108800 -17.100401 1.058400 0.415500 2.663100 2.513800 0.609600 3.580400 1.985800 0.331400 2.166200 -2.863500 2.259700 -17.093399 0.620200 5.027000 32.986801 1.666600 2.202400 14.025100 -0.000000 -0.000000 0.000000 -87.532997 -0.563600 25.093599 14.002300 -22.738001 -2.829000 -0.000000 0.000000 -2.677900 12.123600 -2.610700 -0.560600 -7.125000 0.000000 -0.000000 -11.055900 27.260000 4.848200 -0.000000 -0.000000 0.000000 83.027199 -3.578900 25.240400 -20.270399 30.966700 -5.669800 0.000000 -0.000000 -13.267000 -6.892700 -27.389799 3.183000 7.125000 -0.000000 -0.000000 25.065201 -55.723301 -6.907300 
-1.950131 1.012462 0.065619 -57.562000 83.449097 -56.369301 0.000000 0.000000 0.000000 -14.261800 -4.905000 -8.814600 3.725100 11.785400 34.976898 2.489200 5.540300 -32.158298 0.030400 1.126000 3.095500 0.000000 0.000000 0.000000 21.024401 -6.488400 -20.770100 -4.837000 -13.197800 40.113602 -0.919300 6.864200 -17.114500 -0.769400 5.600900 -15.630700 1.166900 0.410200 3.016200 2.549400 0.615800 3.497900 1.956900 0.337200 1.883700 -2.951000 2.371400 -17.361601 0.571600 5.270600 33.228001 1.716700 2.282400 14.186700 -0.000000 -0.000000 0.000000 -87.603699 -0.737400 24.693800 14.105200 -22.884899 -2.868900 -0.000000 0.000000 -2.187000 12.310800 -2.579500 -0.562700 -7.125000 0.000000 -0.000000 -10.916900 27.290899 4.777100 -0.000000 -0.000000 0.000000 82.977600 -3.698600 25.400299 -20.407000 31.129601 -5.740300 0.000000 -0.000000 -13.426800 -6.354900 -27.204901 2.914800 7.125000 -0.000000 -0.000000 25.462601 -55.452000 -6.855200 
-1.949862 1.011994 0.066087 -56.100300 83.399101 -55.048199 0.000000 0.000000 0.000000 -14.341400 -4.848200 -8.571700 3.702000 11.752900 34.863499 2.538300 5.626000 -32.485100 0.004400 0.430600 1.183200 0.000000 0.000000 0.000000 20.298901 -6.248100 -20.526800 -4.900600 -13.271000 40.391602 -0.911900 7.670300 -17.093100 -0.433000 4.222500 -11.703500 1.104900 0.399800 3.185000 2.539500 0.606200 3.427900 1.979200 0.330700 1.716800 -3.031500 2.469500 -17.461100 0.631800 5.453700 33.467999 1.796000 2.356500 14.307600 0.000000 0.000000 0.000000 -87.690201 -0.499300 28.145100 14.566200 -23.538300 -3.050600 -0.000000 0.000000 -11.347500 19.835199 -3.360000 -1.211100 -7.125000 0.000000 -0.000000 -5.153400 26.402000 2.333200 0.000000 0.000000 0.000000 83.048401 -3.758100 25.246799 -20.387600 31.106501 -5.730300 0.000000 -0.000000 -13.407500 -6.192800 -27.250799 2.844300 7.125000 -0.000000 -0.000000 25.651600 -55.461601 -6.917300 
-1.949075 1.011769 0.066875 -55.765800 83.368301 -54.905602 0.000000 0.000000 0.000000 -14.359000 -4.891300 -8.207900 3.682100 11.724900 34.765701 2.528500 5.795500 -32.512699 0.000600 0.159300 0.437600 0.000000 0.000000 0.000000 19.667801 -6.033000 -20.017900 -4.848600 -13.211300 40.164600 -0.986000 7.234900 -17.736500 -0.276700 3.383300 -9.347800 1.154600 0.370000 3.189700 2.526900 0.567500 3.431800 1.939000 0.312600 1.719800 -2.936500 2.565200 -17.497299 0.585200 5.598400 33.599098 1.790800 2.422800 14.376600 0.000000 -0.000000 0.000000 -87.736000 -0.832500 28.036100 14.537500 -23.497900 -3.039100 -0.000000 0.000000 -11.180000 20.064100 -3.142400 -1.147000 -7.125000 0.000000 -0.000000 -4.986100 26.628000 2.230400 0.000000 -0.000000 0.000000 83.220001 -3.753400 24.921101 -20.311501 31.015800 -5.691000 0.000000 -0.000000 -13.254200 -6.347500 -27.473101 2.937800 7.125000 -0.000000 -0.000000 25.654600 -55.691101 -7.065000 
-1.947931 1.012000 0.067944 -56.403301 83.308197 -55.730202 0.000000 0.000000 0.000000 -14.261000 -4.984400 -7.785200 3.655000 11.686600 34.632198 2.509100 5.916700 -32.461601 0.003000 0.355000 0.975500 0.000000 0.000000 0.000000 19.214800 -5.868400 -19.398701 -4.692200 -13.028500 39.475300 -1.111300 5.512500 -18.854601 -0.296300 3.500400 -9.675100 1.317000 0.314800 3.175300 2.564900 0.497200 3.415900 1.888100 0.280700 1.714300 -2.835700 2.627400 -17.448999 0.450200 5.702600 33.572800 1.734500 2.463000 14.361100 -0.000000 -0.000000 0.000000 -87.739899 -1.109500 28.204100 14.442100 -23.363100 -3.001200 -0.000000 0.000000 -10.875800 20.869900 -4.764000 -1.813600 -7.125000 0.000000 -0.000000 -4.341100 24.882700 2.117300 -0.000000 -0.000000 0.000000 83.274902 -3.917000 24.663401 -20.312799 31.017401 -5.691700 0.000000 -0.000000 -13.236400 -6.498200 -27.707100 3.031600 7.125000 -0.000000 -0.000000 25.671200 -55.930302 -7.222900 
